<?xml version="1.0" encoding="utf-8"?>
<!-- Generator: Adobe Illustrator 27.9.0, SVG Export Plug-In . SVG Version: 6.00 Build 0)  -->
<svg version="1.1" id="Layer_1" xmlns="http://www.w3.org/2000/svg" xmlns:xlink="http://www.w3.org/1999/xlink" x="0px" y="0px"
	 viewBox="0 0 800 800" style="enable-background:new 0 0 800 800;" xml:space="preserve">
<style type="text/css">
	.st0{fill:#FFFFFF;enable-background:new    ;}
	.st1{fill:none;stroke:#323232;stroke-width:66.6667;stroke-linecap:round;stroke-linejoin:round;stroke-miterlimit:133.3333;}
	.st2{fill:none;stroke:#323232;stroke-width:66.6667;stroke-linejoin:round;stroke-miterlimit:133.3333;}
</style>
<path class="st0" d="M700,433.3v-200c0-62.9,0-94.3-19.5-113.8c-19.5-19.5-51-19.5-113.8-19.5H233.3c-62.9,0-94.3,0-113.8,19.5
	c-19.5,19.5-19.5,51-19.5,113.8v200c0,62.9,0,94.3,19.5,113.8c19.5,19.5,51,19.5,113.8,19.5H250c9.2,0,16.7,7.5,16.7,16.7v83.3v5
	c0,11.8,13.4,18.6,22.9,11.7l146.9-106.9c8.8-6.4,19.3-9.8,30.1-9.8h100c62.9,0,94.3,0,113.8-19.5S700,496.2,700,433.3z"/>
<path class="st1" d="M266.7,333.3h0.3"/>
<path class="st1" d="M400,333.3h0.3"/>
<path class="st1" d="M533.3,333.3h0.3"/>
<path class="st2" d="M700,433.3v-200c0-62.9,0-94.3-19.5-113.8c-19.5-19.5-51-19.5-113.8-19.5H233.3c-62.9,0-94.3,0-113.8,19.5
	c-19.5,19.5-19.5,51-19.5,113.8v200c0,62.9,0,94.3,19.5,113.8c19.5,19.5,51,19.5,113.8,19.5H250c9.2,0,16.7,7.5,16.7,16.7v83.3v5
	c0,11.8,13.4,18.6,22.9,11.7l146.9-106.9c8.8-6.4,19.3-9.8,30.1-9.8h100c62.9,0,94.3,0,113.8-19.5S700,496.2,700,433.3z"/>
</svg>
